<?xml version="1.0" encoding="utf-8"?>
<!-- Generator: Adobe Illustrator 22.1.0, SVG Export Plug-In . SVG Version: 6.00 Build 0)  -->
<svg version="1.1" id="Layer_1" xmlns="http://www.w3.org/2000/svg" xmlns:xlink="http://www.w3.org/1999/xlink" x="0px" y="0px"
	 viewBox="0 0 60 62" style="enable-background:new 0 0 60 62;" xml:space="preserve">
<style type="text/css">
	.st0{fill:#D6AE61;}
</style>
<path id="Icon_password" class="st0" d="M54,22h-7V12c0,0,0-12-17.7-12C13,0,13,11.8,13,11.8L13,22H6c-3.3,0-6,2.7-6,6l0,28
	c0,3.3,2.7,6,6,6h48c3.3,0,6-2.7,6-6V28C60,24.7,57.3,22,54,22z M54,56H6V28h48V56z M29,5c11.3-0.1,13,7,13,7v10H18V12
	C18,12,19.2,5,29,5z M30,35c2.2,0,4,1.8,4,4v7c0,2.2-1.8,4-4,4s-4-1.8-4-4v-7C26,36.8,27.8,35,30,35z"/>
</svg>
